<!-- https://www.svgrepo.com/svg/101761/graduated-cylinder -->
<svg fill="#000000" height="200px" width="200px" version="1.1" id="Capa_1" xmlns="http://www.w3.org/2000/svg" xmlns:xlink="http://www.w3.org/1999/xlink" viewBox="0 0 470 470" xml:space="preserve">
    <g id="SVGRepo_bgCarrier" stroke-width="0"></g><g id="SVGRepo_tracerCarrier" stroke-linecap="round" stroke-linejoin="round"></g><g id="SVGRepo_iconCarrier"> <g> <path d="M245,55c4.143,0,7.5-3.358,7.5-7.5S249.143,40,245,40h-40c-4.143,0-7.5,3.358-7.5,7.5v300c0,4.142,3.357,7.5,7.5,7.5h40 c4.143,0,7.5-3.358,7.5-7.5s-3.357-7.5-7.5-7.5h-32.5v-45H245c4.143,0,7.5-3.358,7.5-7.5s-3.357-7.5-7.5-7.5h-32.5v-45H245 c4.143,0,7.5-3.358,7.5-7.5s-3.357-7.5-7.5-7.5h-32.5v-45H245c4.143,0,7.5-3.358,7.5-7.5s-3.357-7.5-7.5-7.5h-32.5v-45H245 c4.143,0,7.5-3.358,7.5-7.5s-3.357-7.5-7.5-7.5h-32.5V55H245z"></path> <path d="M341.964,459.714L312.5,386.056V7.5c0-4.142-3.357-7.5-7.5-7.5H135c-2.521,0-4.873,1.267-6.262,3.371 c-1.388,2.105-1.625,4.766-0.632,7.083L157.5,79.04v307.016l-29.464,73.659c-0.924,2.311-0.642,4.93,0.753,6.99 c1.396,2.061,3.723,3.295,6.211,3.295h200c2.488,0,4.815-1.234,6.211-3.295C342.606,464.644,342.888,462.025,341.964,459.714z M146.078,455l24-60H275c4.143,0,7.5-3.358,7.5-7.5s-3.357-7.5-7.5-7.5H172.5V77.5c0-1.016-0.206-2.021-0.606-2.955L146.374,15 H297.5v372.5c0,0.954,0.182,1.899,0.536,2.786L323.922,455H146.078z"></path> </g> </g>
</svg>